<svg width="248" height="54" viewBox="0 0 248 54" fill="none" xmlns="http://www.w3.org/2000/svg">
<path d="M37.732 34.12C37.732 34.648 37.336 35 36.852 35H30.824C30.384 35 30.076 34.648 30.076 34.208L29.768 26.992H20.748L17.888 34.208C17.712 34.648 17.316 35 16.876 35H10.584C10.188 35 9.968 34.78 9.968 34.472C9.968 34.34 10.012 34.208 10.056 34.076L21.408 6.796C23.168 2.572 26.556 1.912 29.592 1.912C32.628 1.912 35.708 2.572 35.972 6.796L37.732 34.076V34.12ZM29.592 20.964L29.064 8.82C29.064 8.38 29.02 8.16 28.624 8.16C28.228 8.16 28.052 8.38 27.876 8.82L23.036 20.964H29.592ZM69.6736 10.844C69.6736 11.372 69.6296 11.944 69.5856 12.516L69.5416 12.912C68.6176 21.228 62.1496 23.56 54.5376 23.56C53.4816 23.56 52.0736 23.472 50.9736 23.428L49.1256 34.12C49.0376 34.604 48.5536 35 48.0696 35H42.3936C41.9536 35 41.6456 34.736 41.6456 34.296C41.6456 34.252 41.6456 34.208 41.6456 34.164L46.8816 4.596C47.1456 3.1 47.8056 2.704 49.2136 2.484C51.5016 2.132 55.1096 1.912 58.2776 1.912C64.9656 1.912 69.6736 4.552 69.6736 10.844ZM62.1496 11.68C62.1496 9.172 60.6096 8.16 57.2656 8.16C56.6496 8.16 54.1856 8.248 53.6576 8.292L52.0736 17.268C52.5576 17.312 55.1536 17.356 55.6376 17.356C59.5536 17.356 61.7096 15.948 62.0616 12.912L62.1056 12.516C62.1496 12.208 62.1496 11.944 62.1496 11.68ZM83.3727 2.968C83.3727 3.056 83.3727 3.1 83.3727 3.144L77.9167 34.12C77.8287 34.604 77.3887 35 76.9047 35H71.0087C70.6127 35 70.3927 34.692 70.3927 34.34C70.3927 34.252 70.3927 34.208 70.3927 34.12L75.8487 3.144C75.9367 2.66 76.2887 2.308 76.7727 2.308H82.6687C83.1087 2.308 83.3727 2.572 83.3727 2.968Z" fill="#003B7A"/>
<path d="M37.7191 49.18C36.9271 49.18 36.2371 48.994 35.6491 48.622C35.0611 48.238 34.5991 47.704 34.2631 47.02C33.9391 46.336 33.7771 45.538 33.7771 44.626C33.7771 43.702 33.9391 42.898 34.2631 42.214C34.5991 41.53 35.0611 40.996 35.6491 40.612C36.2371 40.228 36.9271 40.036 37.7191 40.036C38.5351 40.036 39.2431 40.228 39.8431 40.612C40.4551 40.996 40.9291 41.53 41.2651 42.214C41.6011 42.898 41.7691 43.702 41.7691 44.626C41.7691 45.538 41.6011 46.336 41.2651 47.02C40.9291 47.704 40.4551 48.238 39.8431 48.622C39.2431 48.994 38.5351 49.18 37.7191 49.18ZM33.2731 52.42V40.216H34.6411L35.0731 41.98H34.8931V46.984H35.0731V52.42H33.2731ZM37.4491 47.632C38.1931 47.632 38.7931 47.356 39.2491 46.804C39.7051 46.252 39.9331 45.526 39.9331 44.626C39.9331 43.714 39.7051 42.982 39.2491 42.43C38.7931 41.866 38.1931 41.584 37.4491 41.584C36.7171 41.584 36.1231 41.86 35.6671 42.412C35.2111 42.964 34.9831 43.696 34.9831 44.608C34.9831 45.52 35.2111 46.252 35.6671 46.804C36.1231 47.356 36.7171 47.632 37.4491 47.632ZM47.1472 49.18C46.2592 49.18 45.4732 48.994 44.7892 48.622C44.1172 48.238 43.5952 47.704 43.2232 47.02C42.8512 46.336 42.6652 45.538 42.6652 44.626C42.6652 43.702 42.8512 42.898 43.2232 42.214C43.5952 41.53 44.1172 40.996 44.7892 40.612C45.4732 40.228 46.2592 40.036 47.1472 40.036C48.0472 40.036 48.8332 40.228 49.5052 40.612C50.1772 40.996 50.6992 41.53 51.0712 42.214C51.4552 42.898 51.6472 43.702 51.6472 44.626C51.6472 45.538 51.4552 46.336 51.0712 47.02C50.6992 47.704 50.1772 48.238 49.5052 48.622C48.8332 48.994 48.0472 49.18 47.1472 49.18ZM47.1472 47.452C47.9512 47.452 48.5932 47.194 49.0732 46.678C49.5652 46.15 49.8112 45.466 49.8112 44.626C49.8112 43.774 49.5652 43.084 49.0732 42.556C48.5932 42.028 47.9512 41.764 47.1472 41.764C46.3552 41.764 45.7132 42.028 45.2212 42.556C44.7412 43.072 44.5012 43.756 44.5012 44.608C44.5012 45.46 44.7412 46.15 45.2212 46.678C45.7132 47.194 46.3552 47.452 47.1472 47.452ZM54.7153 40.216L55.1473 42.592V49H53.3473V40.216H54.7153ZM54.8773 43.33L54.4453 43.132V41.818L54.6073 41.62C54.7273 41.404 54.9133 41.176 55.1653 40.936C55.4293 40.684 55.7353 40.474 56.0833 40.306C56.4313 40.126 56.7853 40.036 57.1453 40.036C57.3253 40.036 57.4933 40.048 57.6493 40.072C57.8173 40.096 57.9433 40.138 58.0273 40.198V41.818H57.4693C56.6533 41.818 56.0593 41.944 55.6873 42.196C55.3153 42.436 55.0453 42.814 54.8773 43.33ZM62.9682 49.162C62.2002 49.162 61.5882 48.94 61.1322 48.496C60.6882 48.04 60.4662 47.338 60.4662 46.39V40.324V40.216L60.8082 38.236H62.2662V46.426C62.2662 46.762 62.3502 47.014 62.5182 47.182C62.6982 47.35 62.9202 47.434 63.1842 47.434C63.3882 47.434 63.5682 47.422 63.7242 47.398C63.8802 47.374 64.0182 47.344 64.1382 47.308V48.982C63.9822 49.03 63.8082 49.072 63.6162 49.108C63.4362 49.144 63.2202 49.162 62.9682 49.162ZM59.1162 41.872V40.216H64.1382V41.872H59.1162ZM68.845 49.252C68.161 49.252 67.573 49.132 67.081 48.892C66.589 48.652 66.211 48.31 65.947 47.866C65.695 47.41 65.569 46.87 65.569 46.246C65.569 45.67 65.701 45.16 65.965 44.716C66.229 44.26 66.607 43.9 67.099 43.636C67.591 43.372 68.173 43.24 68.845 43.24C69.685 43.24 70.357 43.432 70.861 43.816C71.377 44.188 71.737 44.704 71.941 45.364H70.933V43.114C70.933 42.742 70.807 42.4 70.555 42.088C70.303 41.776 69.859 41.62 69.223 41.62C68.887 41.62 68.515 41.662 68.107 41.746C67.711 41.818 67.297 41.95 66.865 42.142L66.325 40.756C66.817 40.516 67.327 40.336 67.855 40.216C68.383 40.096 68.899 40.036 69.403 40.036C70.159 40.036 70.783 40.174 71.275 40.45C71.767 40.726 72.133 41.098 72.373 41.566C72.613 42.022 72.733 42.538 72.733 43.114V49H71.437L70.987 47.398L71.941 47.128C71.725 47.836 71.341 48.37 70.789 48.73C70.237 49.078 69.589 49.252 68.845 49.252ZM69.169 47.65C69.697 47.65 70.123 47.53 70.447 47.29C70.771 47.038 70.933 46.69 70.933 46.246C70.933 45.79 70.771 45.442 70.447 45.202C70.123 44.962 69.697 44.842 69.169 44.842C68.641 44.842 68.215 44.962 67.891 45.202C67.567 45.442 67.405 45.79 67.405 46.246C67.405 46.69 67.567 47.038 67.891 47.29C68.215 47.53 68.641 47.65 69.169 47.65ZM76.3067 49.09C75.9947 49.09 75.7187 49.018 75.4787 48.874C75.2387 48.718 75.0467 48.496 74.9027 48.208C74.7707 47.92 74.7047 47.566 74.7047 47.146V36.742H76.4687V46.516C76.4687 46.888 76.5587 47.14 76.7387 47.272C76.9307 47.404 77.1467 47.47 77.3867 47.47V48.91C77.2307 48.97 77.0627 49.012 76.8827 49.036C76.7027 49.072 76.5107 49.09 76.3067 49.09Z" fill="#003B7A"/>
<path d="M1.42612 26L0 23.6842L7.14989 19.2649V21.7544L0 17.3351L1.42612 15L9 19.6316V21.3877L1.42612 26Z" fill="#00C2D6"/>
<path d="M19 44H9V41H19V44Z" fill="#008CB0"/>
<line x1="93.5" y1="3" x2="93.5" y2="49" stroke="#003B7A" stroke-opacity="0.5"/>
<g clip-path="url(#clip0_653_18)">
<path d="M144.665 6.0882H105.087V46.0441H144.665V6.0882Z" fill="#003071"/>
<mask id="mask0_653_18" style="mask-type:luminance" maskUnits="userSpaceOnUse" x="105" y="8" width="38" height="38">
<path d="M142.306 8.46968H105.087V46H142.306V8.46968Z" fill="white"/>
</mask>
<g mask="url(#mask0_653_18)">
<path d="M142.306 8.46968H105.087V46H142.306V8.46968Z" fill="url(#paint0_radial_653_18)"/>
</g>
<path fill-rule="evenodd" clip-rule="evenodd" d="M128.284 10.8953C127.629 10.763 126.973 10.6307 126.274 10.5866L125.619 17.9956C125.969 18.0397 126.318 18.0838 126.667 18.172L128.284 10.8953ZM122.255 18.4366L119.809 11.4245C119.023 11.6891 118.236 12.0419 117.494 12.4388L121.032 18.9658C121.425 18.7453 121.819 18.5689 122.255 18.4366ZM120.158 19.5391L115.79 13.5413C115.004 14.1588 114.261 14.8203 113.562 15.57L118.979 20.5976C119.328 20.2007 119.722 19.8479 120.158 19.5391ZM128.633 18.8776L132.084 12.3065C131.473 11.9978 130.861 11.6891 130.25 11.4686L127.716 18.4366C127.978 18.5689 128.284 18.7453 128.633 18.8776ZM130.206 20.0243L135.142 14.5116C134.705 14.1147 134.225 13.7619 133.744 13.409L129.507 19.495C129.769 19.6273 129.987 19.8038 130.206 20.0243ZM132.346 23.1555L139.249 20.5094C139.074 20.0243 138.855 19.5832 138.637 19.0981L132.041 22.4057C132.172 22.6703 132.259 22.935 132.346 23.1555ZM118.324 21.3914L112.295 17.1577C111.727 17.9956 111.203 18.8776 110.81 19.8038L117.537 22.7585C117.756 22.3175 118.018 21.8324 118.324 21.3914ZM131.516 21.5237L137.632 17.3782C137.283 16.8931 136.933 16.4079 136.584 15.9669L130.992 20.8181C131.167 21.0386 131.342 21.2591 131.516 21.5237ZM132.827 24.9636L140.122 23.9934C140.035 23.5083 139.947 22.9791 139.86 22.4939L132.696 24.2139C132.74 24.4344 132.783 24.699 132.827 24.9636ZM124.964 34.1367L125.007 41.5458C126.711 41.5458 128.371 41.237 129.944 40.6637L127.497 33.6516C126.711 33.9603 125.837 34.0926 124.964 34.1367ZM121.731 10.8512L123.26 18.1279C123.697 18.0397 124.134 17.9956 124.571 17.9515L124.265 10.5424C123.435 10.5866 122.561 10.6748 121.731 10.8512ZM117.188 23.817L110.111 21.7883C109.805 22.8468 109.631 23.9493 109.543 25.0959L116.882 25.581C116.926 24.9636 117.013 24.3903 117.188 23.817ZM124.876 26.0662L126.711 27.1246H132.783C132.652 28.183 132.303 29.1974 131.779 30.1235L138.156 33.8721C139.511 31.4906 140.253 28.8004 140.253 26.0662H124.876ZM128.502 33.2547L131.822 39.8699C133.875 38.8115 135.623 37.3561 137.021 35.5039L131.211 30.9614C130.468 31.9316 129.551 32.7255 128.502 33.2547ZM118.848 40.3109C120.158 40.8842 121.556 41.2811 122.998 41.4576L123.915 34.0926C123.173 34.0044 122.43 33.828 121.775 33.5193L118.848 40.3109ZM116.882 26.5513L109.543 27.0364C109.631 28.1389 109.805 29.2415 110.111 30.2999L117.144 28.2712C117.013 27.742 116.926 27.1687 116.882 26.5513ZM117.537 29.2856L110.81 32.2404C111.334 33.4311 111.946 34.5336 112.732 35.5039L118.542 31.0055C118.149 30.4763 117.8 29.903 117.537 29.2856ZM119.241 31.7993L114.086 37.0474C115.004 37.9294 116.008 38.7233 117.057 39.3848L120.814 32.9901C120.246 32.6814 119.722 32.2404 119.241 31.7993Z" fill="white"/>
<path d="M172.361 18.0838C176.337 18.0838 178.259 20.333 178.259 23.5083C178.259 27.301 175.638 33.2988 169.216 33.2988C165.459 33.2988 163.231 31.0496 163.231 27.6979C163.231 23.8611 166.114 18.0838 172.361 18.0838ZM169.434 31.7552C173.541 31.7552 174.72 24.5226 174.72 22.3616C174.72 20.7299 173.847 19.6273 172.23 19.6273C167.993 19.6273 166.813 26.6836 166.813 28.8004C166.813 30.5645 167.818 31.7552 169.434 31.7552ZM199.227 18.3043L196.912 27.8743C196.257 30.5204 197.829 31.5788 199.664 31.5788C202.809 31.5788 203.639 28.8886 204.163 26.6395L206.217 18.2602H208.576L206.348 27.742C205.256 32.0198 202.241 33.3429 199.009 33.3429C194.203 33.3429 192.937 30.5645 193.592 27.8302L195.82 18.3484L199.227 18.3043ZM215.303 18.3043L212.114 31.4024H216.919L215.827 33.1224H208.357L211.939 18.3043H215.303ZM224.477 27.2569H227.491L226.617 22.097L219.977 33.1224H217.312L226.748 18.3043H228.758L231.728 33.1224H228.496L227.709 28.8004H223.603L224.477 27.2569ZM239.198 25.0959H240.421C243.523 25.0959 244.178 22.8908 244.178 21.5237C244.178 20.2448 243.174 19.8478 241.688 19.8478H239.941L236.796 33.0783H233.519L237.101 18.2602H241.95C244.397 18.2602 247.673 18.5689 247.673 21.3914C247.673 23.4642 245.751 25.5369 242.824 25.9779L246.887 33.0783H243.348L239.198 25.0959ZM154.757 25.9779C158.295 25.9779 159.3 22.8908 159.3 21.6119C159.3 20.6858 158.732 19.8919 156.679 19.8919H154.888L151.655 33.1224H148.248L151.83 18.3043H157.247C159.911 18.3043 162.882 19.0099 162.882 21.5678C162.882 24.0375 160.916 26.6836 155.455 26.6836H154.582L154.757 25.9779ZM184.942 25.9779C188.437 25.9779 189.442 22.8908 189.442 21.6119C189.442 20.6858 188.874 19.8919 186.821 19.8919H185.073L181.841 33.1224H178.39L182.016 18.3043H187.389C190.053 18.3043 193.068 19.0099 193.068 21.5678C193.068 24.0375 191.102 26.6836 185.641 26.6836H184.768L184.942 25.9779Z" fill="#003071"/>
</g>
<defs>
<radialGradient id="paint0_radial_653_18" cx="0" cy="0" r="1" gradientUnits="userSpaceOnUse" gradientTransform="translate(138.957 12.7907) scale(48.2862 48.7473)">
<stop stop-color="#5FBED5"/>
<stop offset="0.3" stop-color="#5FBED5"/>
<stop offset="0.59" stop-color="#003070"/>
<stop offset="1" stop-color="#003070"/>
</radialGradient>
<clipPath id="clip0_653_18">
<rect width="142.979" height="40" fill="white" transform="translate(105 6)"/>
</clipPath>
</defs>
</svg>
